<?xml version="1.0" standalone="no"?>
<!DOCTYPE svg PUBLIC "-//W3C//DTD SVG 20010904//EN"
 "http://www.w3.org/TR/2001/REC-SVG-20010904/DTD/svg10.dtd">
<svg version="1.0" xmlns="http://www.w3.org/2000/svg"
 width="1086.000000pt" height="1086.000000pt" viewBox="0 0 1086.000000 1086.000000"
 preserveAspectRatio="xMidYMid meet">
<metadata>
Created by potrace 1.14, written by Peter Selinger 2001-2017
</metadata>
<g transform="translate(0.000000,1086.000000) scale(0.100000,-0.100000)"
fill="#000000" stroke="none">
<path d="M1750 10200 l-1415 -5 -85 -45 c-129 -68 -197 -149 -221 -265 -5 -22
-8 -2042 -9 -4490 l0 -4450 29 -60 c60 -120 140 -188 280 -236 53 -19 194 -19
5100 -19 5544 0 5132 -4 5227 61 68 46 137 117 170 174 l29 50 0 4495 0 4495
-22 45 c-62 124 -174 213 -300 239 -64 13 -6112 20 -8783 11z m3390 -1485 l0
-674 64 49 c137 103 341 195 501 225 107 21 295 16 390 -10 239 -64 379 -222
449 -505 49 -200 51 -241 51 -936 0 -644 0 -650 20 -648 11 2 71 5 133 8 l112
5 0 -95 0 -94 -450 0 -450 0 0 70 0 70 29 0 c43 0 112 27 143 57 46 44 69 113
79 242 12 158 11 868 -1 1016 -20 236 -72 379 -174 481 -91 90 -143 108 -316
108 -103 0 -149 -4 -195 -18 -120 -37 -278 -130 -352 -208 l-32 -33 -4 -770
c-3 -423 -8 -786 -12 -805 l-7 -35 134 7 c73 3 137 3 141 -1 4 -4 7 -46 5 -92
l-3 -84 -452 -3 -453 -2 0 69 0 68 49 6 c94 11 152 57 189 150 15 38 17 165
23 1377 4 734 10 1348 14 1363 l8 29 -94 -7 c-52 -3 -123 -7 -159 -8 l-65 -2
-3 91 -3 91 148 8 c86 4 177 14 219 25 73 19 167 61 179 80 3 5 37 10 76 10
l69 0 0 -675z m-926 393 c3 -24 8 -167 11 -318 3 -151 8 -344 12 -427 l6 -153
-86 0 -85 0 -6 88 c-9 135 -33 290 -55 363 -38 122 -114 215 -218 268 -85 42
-152 51 -419 51 l-251 0 -6 -1352 c-4 -744 -9 -1366 -13 -1381 -6 -25 -4 -28
17 -23 13 3 97 8 187 11 l163 7 -3 -99 -3 -98 -520 0 -520 0 -3 67 c-3 77 1
81 82 92 70 9 139 49 166 99 56 98 54 49 57 1415 l4 1262 -223 0 c-374 0 -459
-19 -569 -129 -55 -55 -71 -79 -97 -146 -40 -105 -62 -222 -69 -372 l-6 -123
-85 0 -85 0 6 148 c4 81 9 264 12 407 3 143 8 288 11 323 l6 62 1288 0 1289 0
5 -42z m4316 -802 c180 -47 304 -119 423 -245 148 -158 218 -339 243 -632 l6
-76 -258 -6 c-143 -4 -452 -9 -689 -12 -236 -3 -472 -8 -524 -11 l-94 -6 6
-142 c15 -349 103 -624 252 -784 77 -82 151 -128 258 -160 112 -34 304 -36
419 -4 183 50 350 143 470 262 83 83 75 82 142 22 l38 -33 -28 -42 c-41 -63
-201 -219 -269 -262 -291 -186 -644 -246 -960 -164 -98 26 -261 103 -335 158
-227 171 -376 420 -432 726 -20 109 -17 401 6 505 104 481 448 833 891 915 99
18 353 13 435 -9z m-6822 -5016 l-3 -1500 40 4 c22 3 104 8 183 11 l142 6 0
-100 0 -101 -565 0 -565 0 0 74 0 74 71 12 c150 26 233 95 281 238 l23 67 3
1139 c2 956 0 1137 -11 1133 -8 -3 -127 -78 -265 -166 -138 -89 -255 -161
-260 -161 -9 0 -79 99 -84 119 -2 5 191 153 427 330 l430 320 78 0 77 1 -2
-1500z m2190 1475 c233 -48 428 -188 518 -370 65 -131 59 -268 -15 -345 -42
-44 -105 -65 -170 -56 -67 9 -102 35 -134 96 -25 48 -28 63 -23 115 2 33 14
83 26 110 13 30 19 59 15 73 -3 14 -31 51 -62 83 -104 109 -248 158 -423 145
-244 -18 -421 -151 -528 -398 -88 -205 -178 -589 -197 -843 -3 -44 -8 -105
-11 -135 l-6 -55 61 67 c115 125 284 229 439 269 102 27 293 36 414 19 235
-32 430 -140 561 -312 197 -258 262 -676 154 -993 -157 -459 -607 -737 -1109
-687 -155 15 -255 43 -373 102 -212 106 -349 281 -446 566 -162 482 -155 1170
18 1699 99 303 318 605 533 735 37 22 110 56 161 74 82 29 133 41 274 60 54 8
252 -4 323 -19z m2511 0 c267 -57 455 -197 623 -466 115 -183 190 -417 239
-744 10 -61 14 -185 14 -380 -1 -254 -4 -305 -23 -415 -40 -224 -112 -460
-182 -600 -79 -157 -237 -353 -355 -440 -190 -141 -422 -198 -691 -171 -215
22 -383 85 -525 198 -394 314 -583 1214 -414 1967 70 309 189 555 362 752 161
183 351 284 592 314 85 11 276 3 360 -15z m2646 15 c238 -25 400 -102 561
-266 254 -257 397 -656 422 -1175 26 -526 -79 -1000 -294 -1325 -69 -105 -204
-248 -290 -310 -176 -126 -406 -180 -660 -156 -465 45 -720 270 -889 787 -83
250 -118 487 -118 795 0 400 66 723 207 1014 226 465 594 686 1061 636z"/>
<path d="M8210 8150 c-146 -17 -243 -62 -342 -157 -101 -99 -163 -230 -212
-455 l-6 -28 566 0 566 0 -7 83 c-20 226 -114 420 -244 501 -78 49 -199 70
-321 56z"/>
<path d="M3420 3335 c-191 -43 -403 -214 -495 -402 -30 -62 -32 -116 -9 -295
31 -245 94 -472 177 -633 29 -56 62 -101 112 -151 95 -94 167 -125 310 -131
296 -14 485 140 573 466 23 87 26 114 26 281 0 162 -4 200 -26 305 -43 198
-112 360 -185 437 -105 110 -309 162 -483 123z"/>
<path d="M6097 4608 c-157 -19 -275 -101 -371 -258 -271 -440 -312 -1430 -89
-2125 77 -240 177 -381 325 -454 80 -40 156 -54 258 -48 316 18 490 276 582
862 26 168 36 625 18 854 -30 402 -126 772 -246 952 -78 118 -201 202 -313
215 -25 3 -57 6 -71 8 -14 1 -56 -1 -93 -6z"/>
<path d="M8845 4608 c-143 -17 -282 -113 -368 -255 -83 -136 -167 -406 -201
-642 -86 -597 12 -1382 216 -1729 42 -72 139 -169 204 -204 155 -84 360 -76
506 18 145 93 243 278 313 590 91 407 91 1017 0 1470 -51 253 -123 446 -207
560 -116 155 -263 217 -463 192z"/>
</g>
</svg>
